<svg xmlns="http://www.w3.org/2000/svg" width="1000" height="1000" viewBox="0 0 1000 1000">
  <defs>
    <style>
      .cls-1 {
        fill: #94dce1;
        fill-rule: evenodd;
      }
    </style>
  </defs>
  <path class="cls-1" d="M569,243c-10.843,19.883-42.295,21.487-57,23-73.594,7.57-169.093,58.707-210,140-34.868,69.292-33.583,147.011-8,211,34.979,87.489,111.725,143.231,191,159,109.13,21.708,230.449-29.515,281-130,20.366-40.484,55.7-142.367-10-228-24.641-32.115-79.852-81.151-161-74-41.47,3.655-117.661,25.991-145,102-23.764,66.07,1.128,150.876,64,183,34.585,17.671,92.35,25.137,130-10,45.943-42.876,40-129.63,2-155-11.139-7.438-28.833-11.98-46-6-8,2.788-24.28,14.822-36,38-5.59,11.056-7.3,24.979-17,38-6.012,8.073-24.953,29.574-46,25-12.511-2.719-23.124-14.76-31-39-11.715-36.055.543-75.7,22-102,8.188-10.037,27.393-26.123,54-37,38.413-15.7,82.011-21.46,120-6,68.968,28.068,90.257,103.631,91.924,148.86C759.746,573.282,738.937,618.009,712,650c-49.036,58.237-127.435,82.068-198,69-48.763-9.031-103.449-37.5-136-90-58.144-93.784-18.425-222.655,59-294,76.655-70.635,192.031-86.491,285-42,117.125,56.051,142.409,177.265,147,230,10.856,124.711-59.881,215.283-112,260-94.306,80.913-209.256,83.316-280,71-79.347-13.814-167-56.772-225-140-55.571-79.749-71.6-177.292-52-266,18.166-82.2,66.639-154.656,133-202,30.825-21.992,70.932-42.91,125-54,60.394-12.387,94.833-6.324,107,10C573.336,213.185,575.758,230.608,569,243Z"/>
</svg>
