<svg xmlns="http://www.w3.org/2000/svg" xmlns:xlink="http://www.w3.org/1999/xlink" width="340" height="500" viewBox="0 0 340 500">
  <defs>
    <style>
      .cls-1, .cls-2 {
        fill: #ff3e62;
        fill-rule: evenodd;
      }

      .cls-1 {
        filter: url(#filter);
      }

      .cls-2 {
        filter: url(#filter-2);
      }
    </style>
    <filter id="filter" x="100" y="26" width="241" height="304" filterUnits="userSpaceOnUse">
      <feGaussianBlur result="blur" stdDeviation="18" in="SourceAlpha"/>
      <feComposite result="composite"/>
      <feComposite result="composite-2"/>
      <feComposite result="composite-3"/>
      <feFlood result="flood" flood-color="#dcdcdc" flood-opacity="0.45"/>
      <feComposite result="composite-4" operator="in" in2="composite-3"/>
      <feBlend result="blend" mode="screen" in2="SourceGraphic"/>
      <feBlend result="blend-2" in="SourceGraphic"/>
      <feFlood result="flood-2" flood-color="#d1f4ff"/>
      <feComposite result="composite-5" operator="in" in2="SourceGraphic"/>
      <feBlend result="blend-3" in2="blend-2"/>
    </filter>
    <filter id="filter-2" x="-8" y="17" width="357" height="467" filterUnits="userSpaceOnUse">
      <feGaussianBlur result="blur" stdDeviation="20.667" in="SourceAlpha"/>
      <feComposite result="composite"/>
      <feComposite result="composite-2"/>
      <feComposite result="composite-3"/>
      <feFlood result="flood" flood-color="#fff" flood-opacity="0.52"/>
      <feComposite result="composite-4" operator="in" in2="composite-3"/>
      <feBlend result="blend" mode="screen" in2="SourceGraphic"/>
      <feBlend result="blend-2" in="SourceGraphic"/>
      <feFlood result="flood-2" flood-color="#fff"/>
      <feComposite result="composite-5" operator="in" in2="SourceGraphic"/>
      <feBlend result="blend-3" in2="blend-2"/>
    </filter>
  </defs>
  <path id="Shape_1_copy" data-name="Shape 1 copy" class="cls-1" d="M231.983,95.239c-2.525-4.349-5.765-9.818-7.05-12.5a6.449,6.449,0,0,0-2.886-3.223,5.129,5.129,0,0,0-3.553-.334,6.363,6.363,0,0,0-3.608,3.279,82.213,82.213,0,0,0-4.551,9.114c-0.749,1.982-2.964,5.376-4.718,8.5-5.865,10.455-15.3,26.431-23.2,39.791-4.319,7.307-8,14.366-12.322,21.674-8.622,14.6-15.575,25.764-16.542,42.625a65.5,65.5,0,0,0,40.8,65.411,69.838,69.838,0,0,0,25.367,5.5,68.333,68.333,0,0,0,36.357-11.059,67.154,67.154,0,0,0,27.421-35.957,68.021,68.021,0,0,0-.167-40.069,79.072,79.072,0,0,0-8.992-18.673c-5.18-8.195-9-15.951-14.043-24.23-4.491-7.368-12.922-22.419-19.483-34.067C237.839,105.75,234.909,100.51,231.983,95.239Z"/>
  <path class="cls-2" d="M190.964,107.067c-4.416-7.6-10.085-17.155-12.332-21.848a11.283,11.283,0,0,0-5.049-5.632A8.982,8.982,0,0,0,167.368,79c-3.52.993-5.369,4.067-6.311,5.729a143.308,143.308,0,0,0-7.963,15.925c-1.309,3.464-5.185,9.394-8.254,14.857-10.26,18.268-26.771,46.182-40.589,69.525-7.556,12.767-14,25.1-21.556,37.87-15.082,25.5-27.245,45.017-28.937,74.478-1.354,23.584,4.1,47.466,16.41,67.681,12.607,20.7,32.007,36.87,54.961,46.609a122.314,122.314,0,0,0,44.375,9.613,119.624,119.624,0,0,0,63.6-19.323,117.347,117.347,0,0,0,47.968-62.826c7.068-22.567,6.719-47.169-.291-70.011-4.143-13.5-11.007-25.163-15.73-32.626-9.063-14.319-15.74-27.872-24.567-42.337C232.63,181.294,217.881,155,206.4,134.644,201.208,125.433,196.082,116.277,190.964,107.067Z"/>
</svg>
